<svg xmlns="http://www.w3.org/2000/svg" xmlns:xlink="http://www.w3.org/1999/xlink" viewBox="0 0 128 128"><defs><style>.cls-1{fill:url(#linear-gradient);}.cls-2{fill:#fff;}</style><linearGradient id="linear-gradient" y1="64" x2="128" y2="64" gradientUnits="userSpaceOnUse"><stop offset="0" stop-color="#b5d163"/><stop offset="1" stop-color="#4cc5d6"/></linearGradient></defs><title>Asset 3</title><g id="Layer_2" data-name="Layer 2"><g id="Layer_1-2" data-name="Layer 1"><rect class="cls-1" width="128" height="128" rx="64" ry="64"/><path class="cls-2" d="M78.17,22.17v.26A55.61,55.61,0,0,1,22.56,78H21.5v-.27A55.38,55.38,0,0,1,28.94,50H46.18c0,16.32-10.06,23.91-10.7,24.37C49.84,67.43,49.84,50,49.84,50V29.31a55.33,55.33,0,0,1,27.27-7.14Z"/><path class="cls-2" d="M49.83,105.83v-.26A55.61,55.61,0,0,1,105.44,50h1.06v.27A55.38,55.38,0,0,1,99.06,78H81.82c0-16.32,10.06-23.91,10.7-24.37C78.16,60.57,78.16,78,78.16,78V98.69a55.33,55.33,0,0,1-27.27,7.14Z"/></g></g></svg>